<svg width="2666.6667" height="2666.6667" xmlns="http://www.w3.org/2000/svg">
 <metadata id="metadata8">image/svg+xml</metadata>

 <g>
  <title>background</title>
  <rect fill="none" id="canvas_background" height="2668.6667" width="2668.6667" y="-1" x="-1"/>
 </g>
 <g>
  <title>Layer 1</title>
  <g id="g10" transform="matrix(2.248544595425752,0,0,-2.166413579222095,-908.9600529294739,3502.872372007516) ">
   <g id="g12" transform="translate(0,2.2737367544323206e-13) scale(0.10000000149011612) ">
    <path fill="#434a53" fill-rule="nonzero" d="m10148.5,4980.7c-53.5,0 -106.6,18.8 -148.79,54.2c-61,51.2 -91.51,130 -80.72,208.8l163.81,1198.7c6.1,43.2 23.9,84 52.1,117.6l3391.2,4031.7c232.7,273.8 648,304.3 926.3,68.5l325.6,-271.2c133.8,-113.3 215.9,-271.2 232.3,-445.5c16.4,-177.2 -36.6,-348.2 -149.7,-481.5l-407.3,-488.7c-82.6,-98.5 -228.5,-111.2 -326.1,-29.6c-98.1,81.9 -111.7,227.8 -29.6,326.2l408.7,490.1c32.9,38.7 47.9,88 42.7,139.8c-4.7,52.6 -30,101.6 -68.9,134.7l-325.7,271.2c-83.1,70.4 -208.3,64.3 -274.5,-12.9l-3347.1,-3979.7l-105.1,-767.9l731,235.1l2518,2986.5c82.1,98.6 228.5,110.1 326.1,27.9c97.6,-82.5 110.3,-228.5 27.7,-326.3l-2560.6,-3037.4c-27.7,-33.4 -64.8,-58 -106.1,-71.4l-1144.5,-367.9c-23,-7.2 -46.9,-11 -70.8,-11" id="path14"/>
    <path fill="#434a53" fill-rule="nonzero" d="m14275.5,8890c-53.1,0 -106.1,18.1 -149.7,54.9l-980.7,830.8c-97.6,82.6 -109.8,228.8 -27.3,326.4c83.1,97.3 229,109.5 326.6,26.9l980.8,-830.8c97.6,-82.5 109.8,-228.7 27.2,-326.3c-46,-54 -111.2,-81.9 -176.9,-81.9" id="path16"/>
    <path fill="#434a53" fill-rule="nonzero" d="m11333.8,5389.4c-53,0 -106.1,18.1 -149.7,54.9l-980.7,830.8c-97.6,82.6 -109.8,228.8 -27.3,326.4c83.1,97.4 229,109.6 326.6,27l980.8,-830.8c97.6,-82.6 109.8,-228.8 27.2,-326.4c-46,-53.9 -111.2,-81.9 -176.9,-81.9" id="path18"/>
    <path fill="#434a53" fill-rule="nonzero" d="m7492.53,12049.9c-810.85,0 -1470.61,666.1 -1470.61,1484.7c0,818.6 659.76,1484.7 1470.61,1484.7c176.91,0 354.76,-32.4 528.85,-96c120.11,-43.9 182.06,-176.9 138.41,-297c-44.1,-119.9 -176.43,-182.3 -297.03,-138c-684.15,250.4 -1378.16,-266 -1378.16,-953.7c0,-563.3 452.34,-1021.6 1007.93,-1021.6c563.56,0 1022.02,458.3 1022.02,1021.6c0,127.9 103.23,238.4 231.34,238.4c128.1,0 231.34,-96.9 231.34,-224.8l0,-13.6c0,-818.6 -665.86,-1484.7 -1484.7,-1484.7" id="path20"/>
    <path fill="#434a53" fill-rule="nonzero" d="m7478.93,12989.8c-64.29,4 -124.83,26.3 -168.93,73.4l-395.11,422.1c-87.27,93.2 -82.59,239.8 10.79,327.3c93.38,87.3 239.79,82.4 327.07,-11l227.58,-242.8l879.37,925.3c88.22,92.9 234.62,96.4 327.53,8.2c92.91,-88 96.2,-234.6 8.44,-327.3l-1048.76,-1103.2c-44.11,-46 -104.63,-72 -167.98,-72" id="path22"/>
    <path fill="#434a53" fill-rule="nonzero" d="m7492.53,8522.1c-810.85,0 -1470.61,666.1 -1470.61,1484.7c0,811.1 659.76,1471.1 1470.61,1471.1c209.76,0 372.59,-25.3 528.85,-81.9c120.11,-43.9 182.06,-176.7 138.41,-296.8c-43.63,-120.1 -176.43,-182.5 -297.03,-138.4c-102.76,37.3 -216.78,53.9 -370.23,53.9c-555.59,0 -1007.93,-452.1 -1007.93,-1007.9c0,-563.3 452.34,-1021.5 1007.93,-1021.5c563.56,0 1022.02,458.2 1022.02,1021.5c0,127.9 103.23,238.4 231.34,238.4c128.1,0 231.34,-96.9 231.34,-224.8l0,-13.6c0,-818.6 -665.86,-1484.7 -1484.7,-1484.7" id="path24"/>
    <path fill="#434a53" fill-rule="nonzero" d="m7478.93,9462c-62.89,0 -122.94,25.6 -166.59,70.6l-395.1,408.5c-88.69,92 -86.34,238.4 5.63,327.3c91.97,89.2 237.91,86.8 327.53,-5.4l228.06,-236l882.17,916.7c89.16,92.6 235.1,94.7 327.54,6.3c92.45,-88.7 95.26,-235.3 6.57,-327.3l-1048.76,-1089.6c-43.65,-45.3 -103.7,-71.1 -166.59,-71.1c-0.46,0 -0.46,0 -0.46,0" id="path26"/>
    <path fill="#434a53" fill-rule="nonzero" d="m7492.53,4980.7c-810.85,0 -1470.61,666.1 -1470.61,1484.7c0,818.6 659.76,1484.7 1470.61,1484.7c176.43,0 354.29,-32.1 528.85,-95.5c120.11,-43.9 182.06,-176.7 138.41,-296.8c-43.63,-120.1 -176.43,-182.3 -297.03,-138.4c-686.03,249.6 -1378.16,-266.8 -1378.16,-954c0,-553.7 461.73,-1021.5 1007.93,-1021.5c563.56,0 1022.02,458.2 1022.02,1021.5c0,127.9 103.23,245.2 231.34,245.2c128.1,0 231.34,-90.1 231.34,-218l0,-27.2c0,-818.6 -665.86,-1484.7 -1484.7,-1484.7" id="path28"/>
    <path fill="#434a53" fill-rule="nonzero" d="m7478.93,5920.6c-64.29,1.7 -124.83,26.3 -168.93,73.5l-395.11,422c-87.27,93.2 -82.59,239.8 10.79,327.3c93.38,87.3 239.79,82.4 327.07,-11l227.58,-242.8l879.37,925.3c88.22,92.7 234.62,96.5 327.53,8.2c92.91,-87.9 96.2,-234.6 8.44,-327.3l-1048.76,-1103.2c-44.11,-45.9 -104.63,-72 -167.98,-72" id="path30"/>
    <path fill="#434a53" fill-rule="nonzero" d="m13281.1,4000l-7068.67,0c-676.18,0 -1225.66,550 -1225.66,1225.9l0,9548.2c0,675.9 549.48,1225.9 1225.66,1225.9l7068.67,0c676.2,0 1225.7,-550 1225.7,-1225.9l0,-3405.3c0,-127.9 -103.2,-231.6 -231.3,-231.6c-128.1,0 -231.4,103.7 -231.4,231.6l0,3405.3c0,420.7 -342.5,762.8 -763,762.8l-7068.67,0c-420.44,0 -762.99,-342.1 -762.99,-762.8l0,-9548.2c0,-420.7 342.55,-762.8 762.99,-762.8l7068.67,0c420.5,0 763,342.1 763,762.8l0,2560.7c0,127.8 103.3,231.5 231.4,231.5c128.1,0 231.3,-103.7 231.3,-231.5l0,-2560.7c0,-675.9 -549.5,-1225.9 -1225.7,-1225.9" id="path32"/>
    <path fill="#434a53" fill-rule="nonzero" d="m13240.3,13793.4l-3404.83,0c-128.1,0 -231.34,103.7 -231.34,231.5c0,127.9 103.24,231.6 231.34,231.6l3404.83,0c128.1,0 231.4,-103.7 231.4,-231.6c0,-127.8 -103.3,-231.5 -231.4,-231.5" id="path34"/>
    <path fill="#434a53" fill-rule="nonzero" d="m11537.9,12812.7l-1702.43,0c-128.1,0 -231.34,103.7 -231.34,231.5c0,127.9 103.24,231.6 231.34,231.6l1702.43,0c128.1,0 231.3,-103.7 231.3,-231.6c0,-127.8 -103.2,-231.5 -231.3,-231.5" id="path36"/>
    <path fill="#434a53" fill-rule="nonzero" d="m12695.5,10252l-2860.03,0c-128.1,0 -231.34,103.7 -231.34,231.6c0,127.8 103.24,231.5 231.34,231.5l2860.03,0c128.1,0 231.4,-103.7 231.4,-231.5c0,-127.9 -103.3,-231.6 -231.4,-231.6" id="path38"/>
    <path fill="#434a53" fill-rule="nonzero" d="m11537.9,9284.9l-1702.43,0c-128.1,0 -231.34,103.7 -231.34,231.5c0,127.9 103.24,231.6 231.34,231.6l1702.43,0c128.1,0 231.3,-103.7 231.3,-231.6c0,-127.8 -103.2,-231.5 -231.3,-231.5" id="path40"/>
   </g>
  </g>
 </g>
</svg>